<?xml version="1.0" encoding="UTF-8" standalone="no"?><!DOCTYPE svg PUBLIC "-//W3C//DTD SVG 1.1//EN" "http://www.w3.org/Graphics/SVG/1.1/DTD/svg11.dtd"><svg width="100%" height="100%" viewBox="0 0 8192 8192" version="1.1" xmlns="http://www.w3.org/2000/svg" xmlns:xlink="http://www.w3.org/1999/xlink" xml:space="preserve" xmlns:serif="http://www.serif.com/" style="fill-rule:evenodd;clip-rule:evenodd;stroke-linejoin:round;stroke-miterlimit:2;"><g id="Paul--favicon-" serif:id="Paul (favicon)"><path id="P" d="M6781.622,3673.771l-702.069,1521.573c-175.81,381.3 -557.343,625.529 -977.384,625.529c-621.689,0 -1077.616,-509.977 -1077.616,-1076.421c0,-149.024 31.576,-302.112 100.221,-450.901l702.068,-1521.576c175.821,-381.297 557.354,-625.518 977.396,-625.518c621.689,0 1077.605,509.98 1077.605,1076.176c0,149.258 -31.565,302.346 -100.221,451.138Zm-2685.622,-3577.771c-2209.139,0 -4000,1790.862 -4000,4000c0,562.067 116.142,1096.945 325.404,1582.258l1340.75,-2906.283c175.821,-381.297 557.354,-625.518 977.385,-625.518c621.7,0 1077.616,509.98 1077.616,1076.176c0,149.258 -31.565,302.346 -100.221,451.138l-1755.545,3805.342c617.748,390.677 1349.717,616.888 2134.61,616.888c2209.139,0 4000,-1790.862 4000,-4000c0,-2209.138 -1790.861,-4000 -4000,-4000Z" style="fill:#ffb800;fill-rule:nonzero;"/></g></svg>