<?xml version="1.0" encoding="UTF-8" standalone="no"?><!DOCTYPE svg PUBLIC "-//W3C//DTD SVG 1.1//EN" "http://www.w3.org/Graphics/SVG/1.1/DTD/svg11.dtd"><svg width="100%" height="100%" viewBox="0 0 9961 3200" version="1.1" xmlns="http://www.w3.org/2000/svg" xmlns:xlink="http://www.w3.org/1999/xlink" xml:space="preserve" xmlns:serif="http://www.serif.com/" style="fill-rule:evenodd;clip-rule:evenodd;stroke-linejoin:round;stroke-miterlimit:2;"><g id="Paul-Text" serif:id="Paul Text"><g id="Paul--favicon-" serif:id="Paul (favicon)"><path id="P" d="M2589.988,1452.22l-245.724,532.551c-61.533,133.455 -195.07,218.935 -342.085,218.935c-217.591,0 -377.166,-178.492 -377.166,-376.747c0,-52.158 11.052,-105.739 35.077,-157.815l245.724,-532.551c61.538,-133.454 195.074,-218.931 342.089,-218.931c217.591,0 377.162,178.493 377.162,376.662c0,52.24 -11.048,105.821 -35.077,157.898Zm-939.968,-1252.22c-773.199,0 -1400,626.802 -1400,1400c0,196.723 40.65,383.931 113.891,553.79l469.263,-1017.199c61.538,-133.454 195.074,-218.931 342.085,-218.931c217.595,0 377.166,178.493 377.166,376.662c0,52.24 -11.048,105.821 -35.077,157.898l-614.441,1331.87c216.212,136.737 472.401,215.911 747.114,215.911c773.199,0 1400,-626.802 1400,-1400c0,-773.198 -626.801,-1400 -1400,-1400Z" style="fill:#ffb800;fill-rule:nonzero;"/></g><g id="Paul-" serif:id="Paul " transform="matrix(2420.470263,0,0,2420.470263,3363.640668,2450.795297)"><path d="M0.117,0.009c-0.029,0 -0.05,-0.009 -0.064,-0.028c-0.013,-0.019 -0.017,-0.045 -0.012,-0.079l0.081,-0.516c0.005,-0.031 0.016,-0.054 0.034,-0.069c0.018,-0.015 0.042,-0.023 0.073,-0.023l0.206,0c0.085,0 0.149,0.018 0.191,0.054c0.042,0.036 0.064,0.086 0.064,0.149c0,0.083 -0.025,0.147 -0.075,0.191c-0.05,0.045 -0.123,0.067 -0.219,0.067l-0.148,0l-0.025,0.161c-0.005,0.031 -0.016,0.054 -0.033,0.069c-0.018,0.015 -0.042,0.023 -0.072,0.023Zm0.153,-0.393l0.133,0c0.037,0 0.065,-0.009 0.084,-0.026c0.019,-0.017 0.028,-0.042 0.028,-0.075c0,-0.027 -0.008,-0.047 -0.025,-0.06c-0.017,-0.013 -0.043,-0.019 -0.079,-0.019l-0.112,0l-0.028,0.18Z" style="fill:#1a1614;fill-rule:nonzero;"/></g><g transform="matrix(2420.470263,0,0,2420.470263,4795.654638,2450.795297)"><path d="M0.067,0.009c-0.022,0 -0.04,-0.005 -0.054,-0.014c-0.014,-0.009 -0.023,-0.022 -0.026,-0.038c-0.003,-0.016 0.002,-0.034 0.014,-0.053l0.348,-0.557c0.014,-0.022 0.028,-0.037 0.044,-0.047c0.016,-0.01 0.036,-0.014 0.06,-0.014c0.025,0 0.045,0.006 0.061,0.019c0.016,0.013 0.028,0.031 0.035,0.057l0.165,0.539c0.007,0.024 0.009,0.044 0.004,0.06c-0.005,0.016 -0.014,0.028 -0.027,0.036c-0.013,0.008 -0.029,0.012 -0.048,0.012c-0.027,0 -0.047,-0.006 -0.061,-0.019c-0.014,-0.013 -0.024,-0.033 -0.032,-0.061l-0.028,-0.11l0.05,0.038l-0.399,0l0.061,-0.034l-0.079,0.134c-0.009,0.016 -0.021,0.029 -0.036,0.038c-0.015,0.009 -0.032,0.013 -0.053,0.013Zm0.366,-0.522l-0.154,0.262l-0.022,-0.033l0.28,0l-0.031,0.037l-0.07,-0.266l-0.002,0Z" style="fill:#1a1614;fill-rule:nonzero;"/></g><g transform="matrix(2420.470263,0,0,2420.470263,6604.999593,2450.795297)"><path d="M0.349,0.011c-0.046,0 -0.087,-0.007 -0.125,-0.02c-0.038,-0.013 -0.07,-0.034 -0.096,-0.061c-0.026,-0.027 -0.044,-0.061 -0.055,-0.103c-0.01,-0.041 -0.011,-0.09 -0.003,-0.146l0.049,-0.31c0.005,-0.029 0.015,-0.05 0.032,-0.064c0.017,-0.014 0.039,-0.021 0.068,-0.021c0.031,0 0.053,0.009 0.067,0.026c0.014,0.018 0.019,0.042 0.014,0.075l-0.048,0.305c-0.008,0.052 -0.003,0.093 0.016,0.122c0.018,0.029 0.05,0.044 0.096,0.044c0.041,0 0.075,-0.011 0.1,-0.034c0.025,-0.023 0.042,-0.058 0.049,-0.105l0.055,-0.347c0.005,-0.029 0.015,-0.05 0.032,-0.064c0.017,-0.014 0.039,-0.021 0.068,-0.021c0.03,0 0.051,0.009 0.065,0.026c0.014,0.017 0.018,0.042 0.013,0.074l-0.051,0.324c-0.01,0.064 -0.029,0.119 -0.056,0.164c-0.027,0.045 -0.064,0.079 -0.112,0.102c-0.047,0.023 -0.107,0.035 -0.179,0.035Z" style="fill:#1a1614;fill-rule:nonzero;"/></g><g transform="matrix(2420.470263,0,0,2420.470263,8391.831397,2450.795297)"><path d="M0.127,-0c-0.032,-0 -0.056,-0.009 -0.071,-0.026c-0.015,-0.018 -0.02,-0.042 -0.015,-0.074l0.084,-0.529c0.005,-0.029 0.015,-0.05 0.032,-0.064c0.017,-0.014 0.039,-0.021 0.068,-0.021c0.031,0 0.053,0.009 0.068,0.026c0.014,0.017 0.019,0.042 0.014,0.074l-0.073,0.461l0.23,0c0.026,0 0.046,0.005 0.06,0.016c0.014,0.011 0.021,0.026 0.021,0.046c0,0.028 -0.008,0.051 -0.024,0.067c-0.016,0.016 -0.038,0.024 -0.067,0.024l-0.327,-0Z" style="fill:#1a1614;fill-rule:nonzero;"/></g><g transform="matrix(2420.470263,0,0,2420.470263,9807.776954,2450.795297)"></g></g></svg>