<?xml version="1.0" encoding="UTF-8" standalone="no"?><!DOCTYPE svg PUBLIC "-//W3C//DTD SVG 1.1//EN" "http://www.w3.org/Graphics/SVG/1.1/DTD/svg11.dtd"><svg width="100%" height="100%" viewBox="0 0 9823 3200" version="1.1" xmlns="http://www.w3.org/2000/svg" xmlns:xlink="http://www.w3.org/1999/xlink" xml:space="preserve" xmlns:serif="http://www.serif.com/" style="fill-rule:evenodd;clip-rule:evenodd;stroke-linejoin:round;stroke-miterlimit:2;"><g id="Paul-Text" serif:id="Paul Text"><g id="Paul--favicon-" serif:id="Paul (favicon)"><path id="P" d="M2589.954,1452.22l-245.724,532.551c-61.533,133.455 -195.07,218.935 -342.085,218.935c-217.591,0 -377.166,-178.492 -377.166,-376.747c0,-52.158 11.052,-105.739 35.077,-157.815l245.724,-532.551c61.538,-133.454 195.074,-218.931 342.089,-218.931c217.591,0 377.162,178.493 377.162,376.662c0,52.24 -11.048,105.821 -35.077,157.898Zm-939.968,-1252.22c-773.199,0 -1400,626.802 -1400,1400c0,196.723 40.65,383.931 113.891,553.79l469.263,-1017.199c61.538,-133.454 195.074,-218.931 342.085,-218.931c217.595,0 377.166,178.493 377.166,376.662c0,52.24 -11.048,105.821 -35.077,157.898l-614.441,1331.87c216.212,136.737 472.401,215.911 747.114,215.911c773.199,0 1400,-626.802 1400,-1400c0,-773.198 -626.801,-1400 -1400,-1400Z" style="fill:#ffb800;fill-rule:nonzero;"/></g><g id="Paul-" serif:id="Paul " transform="matrix(2420.470263,0,0,2420.470263,9666.512327,2441.113416)"></g><text x="3336.983px" y="2441.113px" style="font-family:'LexendDeca-Bold', 'Lexend Deca';font-weight:700;font-size:2420.47px;fill:#1a1614;">P<tspan x="4757.799px 6364.991px 8192.446px " y="2441.113px 2441.113px 2441.113px ">AUL</tspan></text></g></svg>