<?xml version="1.0" encoding="UTF-8" standalone="no"?><!DOCTYPE svg PUBLIC "-//W3C//DTD SVG 1.1//EN" "http://www.w3.org/Graphics/SVG/1.1/DTD/svg11.dtd"><svg width="100%" height="100%" viewBox="0 0 8192 8192" version="1.1" xmlns="http://www.w3.org/2000/svg" xmlns:xlink="http://www.w3.org/1999/xlink" xml:space="preserve" xmlns:serif="http://www.serif.com/" style="fill-rule:evenodd;clip-rule:evenodd;stroke-linejoin:round;stroke-miterlimit:2;"><g id="Paul"><rect id="Background" x="0" y="0" width="8192" height="8192" style="fill:#1a1614;fill-rule:nonzero;"/><path id="P" d="M5606.662,3858.496l-394.914,855.885c-98.893,214.481 -313.505,351.86 -549.779,351.86c-349.7,0 -606.159,-286.862 -606.159,-605.487c0,-83.826 17.761,-169.938 56.374,-253.632l394.913,-855.886c98.9,-214.479 313.512,-351.854 549.785,-351.854c349.7,0 606.153,286.864 606.153,605.349c0,83.958 -17.755,170.07 -56.374,253.765Zm-1510.662,-2012.496c-1242.641,0 -2250,1007.36 -2250,2250c0,316.162 65.33,617.031 183.04,890.02l754.172,-1634.784c98.9,-214.479 313.512,-351.854 549.779,-351.854c349.706,0 606.159,286.864 606.159,605.349c0,83.958 -17.755,170.07 -56.374,253.765l-987.494,2140.505c347.483,219.756 759.216,346.999 1200.718,346.999c1242.641,0 2250,-1007.36 2250,-2250c0,-1242.64 -1007.359,-2250 -2250,-2250Z" style="fill:#ffb800;fill-rule:nonzero;"/></g></svg>